<?xml version="1.0" encoding="UTF-8"?>
<svg version="1.1" xmlns="http://www.w3.org/2000/svg" width="1024" height="1024">
<path d="M0 0 C1.1753833 0.00182281 2.3507666 0.00364563 3.56176758 0.00552368 C115.01647211 0.29523948 223.89234239 41.40333084 309.05078125 118.046875 C310.44189289 119.30168799 311.8396155 120.54966949 313.26293945 121.76782227 C319.15832016 126.82600678 324.64576307 132.24729739 330.125 137.75 C331.4852832 139.10448242 331.4852832 139.10448242 332.87304688 140.48632812 C337.97979445 145.60048215 342.87205016 150.81600761 347.5625 156.3125 C348.48781624 157.36093723 349.4148185 158.4078896 350.34375 159.453125 C358.99946091 169.30452444 366.83225363 179.726427 374.5625 190.3125 C375.10970703 191.05967285 375.65691406 191.8068457 376.22070312 192.57666016 C383.9290381 203.14815921 390.91335767 214.04881095 397.5625 225.3125 C398.26560303 226.48643311 398.26560303 226.48643311 398.98291016 227.68408203 C440.9034772 297.80704747 462.14586391 379.21489425 461.875 460.75 C461.87284485 461.92704498 461.8706897 463.10408997 461.86846924 464.31680298 C461.56425185 568.33013515 425.78972931 670.27656548 343.703125 769.953125 C342.34470498 771.45036166 340.9992458 772.95954408 339.671875 774.484375 C334.35085528 780.559555 328.70024587 786.28170499 323 792 C322.19643066 792.80816162 321.39286133 793.61632324 320.56494141 794.44897461 C315.72471077 799.27679948 310.75346319 803.86636023 305.5625 808.3125 C304.51422913 809.2380047 303.46727659 810.16500553 302.421875 811.09375 C293.32218255 819.08899044 283.7509213 826.38418572 273.98193359 833.54003906 C272.47112501 834.64684737 270.96313975 835.75753229 269.45947266 836.87402344 C195.04615241 892.06190573 100.33633869 922.43577807 1.125 922.625 C-0.05204498 922.62284485 -1.22908997 922.6206897 -2.44180298 922.61846924 C-66.95170081 922.42979119 -130.67959244 909.22382235 -189.4375 882.3125 C-191.08903076 881.56081543 -191.08903076 881.56081543 -192.77392578 880.79394531 C-209.24679278 873.23887987 -224.97536547 864.75529866 -240.4375 855.3125 C-241.28779785 854.7983252 -242.1380957 854.28415039 -243.01416016 853.75439453 C-255.33735486 846.28070648 -266.98197143 838.05139473 -278.4375 829.3125 C-279.40212158 828.57966797 -279.40212158 828.57966797 -280.38623047 827.83203125 C-289.73192015 820.70485108 -298.66022311 813.12603526 -307.4375 805.3125 C-307.97165527 804.8376416 -308.50581055 804.3627832 -309.05615234 803.87353516 C-316.36890548 797.33515487 -323.36294987 790.48399543 -330.3125 783.5625 C-331.10946289 782.77020996 -331.90642578 781.97791992 -332.72753906 781.16162109 C-337.50355588 776.37257696 -342.03720315 771.44686061 -346.4375 766.3125 C-347.363036 765.26425676 -348.29003682 764.21730439 -349.21875 763.171875 C-357.21399044 754.07218255 -364.50918572 744.5009213 -371.66503906 734.73193359 C-372.77184737 733.22112501 -373.88253229 731.71313975 -374.99902344 730.20947266 C-411.83933686 680.53534264 -437.23636985 621.57656333 -450.4375 561.3125 C-450.67017578 560.26046387 -450.90285156 559.20842773 -451.14257812 558.12451172 C-454.02115238 544.85723678 -456.05567342 531.53119788 -457.6875 518.0625 C-457.77067474 517.3765274 -457.85384949 516.69055481 -457.93954468 515.98379517 C-460.07979945 498.09651574 -460.67840605 480.49924031 -460.6875 462.5 C-460.68817474 461.29964111 -460.68884949 460.09928223 -460.68954468 458.86254883 C-460.59212432 349.51137863 -421.19458473 242.98409276 -349.4375 160.3125 C-348.82648438 159.6009375 -348.21546875 158.889375 -347.5859375 158.15625 C-345.88734624 156.19200228 -344.16731629 154.24930285 -342.4375 152.3125 C-341.71046875 151.49265625 -340.9834375 150.6728125 -340.234375 149.828125 C-334.26146244 143.19562701 -328.05112728 136.82123726 -321.75 130.5 C-320.95432617 129.69973389 -320.15865234 128.89946777 -319.33886719 128.07495117 C-314.53251206 123.2810762 -309.59116906 118.72846421 -304.4375 114.3125 C-303.38924755 113.38697443 -302.34229512 112.45997361 -301.296875 111.53125 C-291.44547556 102.87553909 -281.023573 95.04274637 -270.4375 87.3125 C-269.69032715 86.76529297 -268.9431543 86.21808594 -268.17333984 85.65429688 C-252.65703298 74.34039614 -236.29853217 64.48144208 -219.4375 55.3125 C-218.61749512 54.86293945 -217.79749023 54.41337891 -216.95263672 53.95019531 C-169.32162179 27.96644312 -117.38592833 11.83299277 -63.8125 4 C-62.80960937 3.85272461 -61.80671875 3.70544922 -60.7734375 3.55371094 C-40.56318553 0.80186859 -20.37750255 -0.06609253 0 0 Z " fill="#F47421" transform="translate(511.4375,50.6875)"/>
<path d="M0 0 C3.43283808 1.50441531 4.64279222 5.20336228 6.28637695 8.40014648 C7.17299692 10.05914594 8.06247101 11.71662228 8.9543457 13.37280273 C9.66856689 14.70529053 9.66856689 14.70529053 10.3972168 16.06469727 C13.02787137 20.88233265 15.8174109 25.60600185 18.59887695 30.33764648 C24.45165348 40.32441768 30.25178664 50.34015062 36.02539062 60.37280273 C36.91834839 61.92354492 36.91834839 61.92354492 37.8293457 63.50561523 C38.35294678 64.41593506 38.87654785 65.32625488 39.41601562 66.26416016 C40.44572613 68.03627091 41.53350923 69.77547475 42.66650391 71.48339844 C43.07731201 72.26030029 43.48812012 73.03720215 43.91137695 73.83764648 C42.62507158 77.69656259 41.03557122 78.39402302 37.72387695 80.71264648 C26.33161183 88.96610252 16.39078662 98.606939 7.91137695 109.83764648 C7.0312455 110.96661267 6.15103297 112.09551566 5.27075195 113.22436523 C-23.42075421 150.58183617 -35.52721871 197.68617471 -29.83862305 244.27514648 C-23.38212004 292.53164215 1.08077564 335.13072255 39.69604492 364.63891602 C41.09988598 365.70683056 42.5054472 366.77248324 43.91137695 367.83764648 C42.53688828 371.47397272 40.90702838 374.80828769 39.00512695 378.19702148 C38.43157471 379.22110107 37.85802246 380.24518066 37.26708984 381.30029297 C36.65470459 382.38511963 36.04231934 383.46994629 35.41137695 384.58764648 C34.77772217 385.71436768 34.14406738 386.84108887 33.49121094 388.00195312 C29.67091585 394.77590004 25.80031867 401.51577556 21.8293457 408.20239258 C17.11060861 416.15369588 12.51604938 424.17699113 7.91162109 432.19482422 C7.29279053 433.27062744 6.67395996 434.34643066 6.03637695 435.45483398 C5.20493164 436.902854 5.20493164 436.902854 4.35668945 438.38012695 C3.26607356 440.23454242 2.10473031 442.04761645 0.91137695 443.83764648 C-2.08123421 443.24133131 -4.05344052 442.36610479 -6.48706055 440.53686523 C-7.12353516 440.06120117 -7.76000977 439.58553711 -8.41577148 439.09545898 C-9.0915625 438.57725586 -9.76735352 438.05905273 -10.46362305 437.52514648 C-11.17550781 436.98245117 -11.88739258 436.43975586 -12.62084961 435.88061523 C-30.73829143 421.94784289 -48.3794136 406.20651567 -62.08862305 387.83764648 C-63.15984693 386.4558331 -64.23150207 385.07435398 -65.3034668 383.69311523 C-74.01636318 372.31981079 -81.3400689 360.46512195 -88.08862305 347.83764648 C-88.47244141 347.12511719 -88.85625977 346.41258789 -89.25170898 345.6784668 C-95.08250742 334.76089036 -99.69829405 323.39892698 -104.08862305 311.83764648 C-104.35336426 311.14268066 -104.61810547 310.44771484 -104.89086914 309.73168945 C-106.00938404 306.77134843 -107.0782052 303.80559594 -108.0769043 300.80249023 C-109.00800511 297.88257468 -109.00800511 297.88257468 -110.2565918 295.40405273 C-111.31104118 292.82088197 -111.68764142 291.58077031 -111.08862305 288.83764648 C-108.90956578 286.19164838 -106.63674647 283.93329868 -104.1081543 281.63232422 C-89.86149633 268.61587336 -81.04138376 247.74352253 -79.96459961 228.63696289 C-79.08701465 202.39067198 -86.27025521 181.47008447 -104.0222168 161.92749023 C-105.7321793 160.19813308 -107.38793655 158.88274625 -109.33862305 157.46264648 C-111.08862305 154.83764648 -111.08862305 154.83764648 -110.96362305 152.57592773 C-110.21855863 149.23710783 -109.18800574 146.07811092 -108.08862305 142.83764648 C-107.62448052 141.37559752 -107.16097622 139.91334583 -106.69799805 138.45092773 C-94.26498704 100.27500729 -72.94624244 65.64983878 -45.08862305 36.83764648 C-44.45730469 36.18441406 -43.82598633 35.53118164 -43.17553711 34.8581543 C-35.2056477 26.65669425 -27.18935051 18.79346215 -18.08862305 11.83764648 C-16.72492541 10.75744277 -15.36167871 9.67666964 -13.9987793 8.59545898 C-12.55064608 7.46646105 -11.10142957 6.33885123 -9.65112305 5.21264648 C-8.96405273 4.66640625 -8.27698242 4.12016602 -7.5690918 3.55737305 C-6.91682617 3.05947266 -6.26456055 2.56157227 -5.5925293 2.04858398 C-5.01317627 1.59789551 -4.43382324 1.14720703 -3.83691406 0.68286133 C-2.08862305 -0.16235352 -2.08862305 -0.16235352 0 0 Z " fill="#FEFEFE" transform="translate(364.088623046875,290.162353515625)"/>
<path d="M0 0 C28.71 0 57.42 0 87 0 C87 13.52818991 87 13.52818991 86.30078125 18.375 C86.14649658 19.45152832 85.99221191 20.52805664 85.83325195 21.63720703 C85.66140381 22.74692871 85.48955566 23.85665039 85.3125 25 C85.13098389 26.18062012 84.94946777 27.36124023 84.76245117 28.57763672 C78.82231682 65.79238924 64.21960273 103.38632513 42 134 C41.3512793 134.89912109 41.3512793 134.89912109 40.68945312 135.81640625 C33.58659927 145.61814971 26.07136173 154.98057356 18 164 C17.16082031 164.9590625 16.32164062 165.918125 15.45703125 166.90625 C14.68746094 167.7415625 13.91789062 168.576875 13.125 169.4375 C12.13886719 170.51837891 12.13886719 170.51837891 11.1328125 171.62109375 C9 173 9 173 6.22265625 172.8203125 C5.15917969 172.54960938 4.09570312 172.27890625 3 172 C-21.81607998 166.85552799 -45.57664006 167.71830635 -67.75 181.3125 C-69.51802563 182.51559437 -71.26824667 183.74525657 -73 185 C-73.90234375 185.64453125 -74.8046875 186.2890625 -75.734375 186.953125 C-90.91972425 198.53517104 -102.50281225 215.80871515 -105.37084961 234.86083984 C-105.72265625 236.76953125 -105.72265625 236.76953125 -107 240 C-112.17229283 243.14104129 -117.96359443 243.9852486 -123.875 245 C-124.84203857 245.16661133 -125.80907715 245.33322266 -126.80541992 245.50488281 C-129.8679174 246.01902652 -132.9333864 246.51106977 -136 247 C-137.38807861 247.23299805 -137.38807861 247.23299805 -138.80419922 247.47070312 C-166.5345816 252.01296041 -197.37985623 252.51313128 -225 247 C-226.52173828 246.70198486 -226.52173828 246.70198486 -228.07421875 246.39794922 C-252.2134864 241.53879326 -275.93091394 234.03454303 -298 223 C-296.5839494 219.21481268 -294.84578935 215.80250679 -292.83203125 212.30078125 C-292.19346191 211.18678955 -291.55489258 210.07279785 -290.89697266 208.92504883 C-290.20224556 207.72080985 -289.50741884 206.51662834 -288.8125 205.3125 C-288.09398315 204.06223969 -287.37572523 202.81183054 -286.65771484 201.5612793 C-284.80512261 198.33661093 -282.94847877 195.11429475 -281.09075928 191.89257812 C-279.37716585 188.9193195 -277.66738896 185.94387112 -275.95703125 182.96875 C-269.03608051 170.9407652 -262.06863156 158.94182932 -255 147 C-249.75118096 147.6321874 -245.30949554 149.32664381 -240.4375 151.25 C-195.42530755 168.36371226 -146.35448983 164.51927847 -102.6418457 145.28930664 C-61.05978591 126.32546061 -27.95308523 90.04786875 -11.87890625 47.44433594 C-6.57981949 32.70698687 -2.5600793 17.60079301 -1 2 C-0.67 1.34 -0.34 0.68 0 0 Z " fill="#FEFEFE" transform="translate(691,529)"/>
<path d="M0 0 C1.00659668 0.16048828 2.01319336 0.32097656 3.05029297 0.48632812 C6.07863645 0.97254099 9.1024166 1.47923832 12.125 2 C13.02049561 2.1537207 13.91599121 2.30744141 14.83862305 2.46582031 C19.91100796 3.40621448 24.50237396 4.41563111 29 7 C30.1640625 9.49609375 30.1640625 9.49609375 30.625 12.4375 C31.94590241 19.08203939 34.15012987 24.8662278 37 31 C37.40734375 31.89332031 37.8146875 32.78664063 38.234375 33.70703125 C48.07137468 53.46782767 66.08013709 66.84732258 86.5234375 74.28125 C104.36617287 79.99745813 124.17897208 79.59639473 142.0859375 74.04296875 C145 74 145 74 148.11328125 76.359375 C149.19962979 77.47042856 150.2651183 78.60213906 151.3125 79.75 C151.88226562 80.34981689 152.45203125 80.94963379 153.0390625 81.56762695 C166.45856404 95.85613967 178.18264583 112.04096334 188 129 C188.56533447 129.95664551 188.56533447 129.95664551 189.14208984 130.93261719 C209.69052822 165.81121399 223 206.3430071 223 247 C194.29 247 165.58 247 136 247 C134.62394476 244.24788953 134.58230541 241.68885588 134.25 238.625 C129.06855737 196.63157501 106.45090822 153.40569206 73 127 C72.1968335 126.36094727 72.1968335 126.36094727 71.37744141 125.70898438 C46.31177563 105.90302125 16.84732116 91.49534752 -15 87 C-15.68030273 86.89848633 -16.36060547 86.79697266 -17.06152344 86.69238281 C-37.14962609 83.75650059 -57.06408232 84.25495312 -77 88 C-78.11665039 88.20882812 -78.11665039 88.20882812 -79.25585938 88.421875 C-88.71193228 90.26363492 -97.61537696 93.11224608 -106.58251953 96.62597656 C-107.70762939 97.06441895 -107.70762939 97.06441895 -108.85546875 97.51171875 C-109.51184326 97.77428467 -110.16821777 98.03685059 -110.84448242 98.30737305 C-113.53015142 99.1703522 -116.2134997 99.5862567 -119 100 C-120.52361905 97.35906032 -122.047229 94.71811539 -123.57080078 92.07714844 C-124.91667973 89.74437958 -126.2626869 87.41168522 -127.60888672 85.07910156 C-131.03583366 79.14074008 -134.46057374 73.20113928 -137.87890625 67.2578125 C-139.12745815 65.08845762 -140.37615427 62.91918574 -141.625 60.75 C-142.23682129 59.68668457 -142.84864258 58.62336914 -143.47900391 57.52783203 C-146.56286745 52.180238 -149.67273309 46.85029965 -152.83203125 41.546875 C-153.74251221 40.01788574 -153.74251221 40.01788574 -154.67138672 38.45800781 C-155.82383722 36.52780456 -156.98023579 34.59995149 -158.14111328 32.67480469 C-158.65013184 31.82305664 -159.15915039 30.97130859 -159.68359375 30.09375 C-160.13275146 29.34802734 -160.58190918 28.60230469 -161.04467773 27.83398438 C-162 26 -162 26 -162 24 C-143.85794569 15.57850318 -125.53788563 8.40599258 -106 4 C-104.68120822 3.66438524 -103.36350756 3.32445674 -102.046875 2.98046875 C-69.20575111 -5.48752519 -33.35366516 -5.5986302 0 0 Z " fill="#FEFEFE" transform="translate(555,248)"/>
<path d="M0 0 C0.65097656 0.44859375 1.30195312 0.8971875 1.97265625 1.359375 C13.33399833 10.1585921 21.52214344 24.96038008 24 39 C25.81555948 57.20827428 22.27153575 73.8935139 10.96875 88.65234375 C0.45937496 100.95645361 -13.88569689 109.03047406 -30 111 C-46.50704481 112.16274552 -61.35881763 109.42231615 -74.66015625 98.89453125 C-77.19590816 96.67240174 -79.61412893 94.38178567 -82 92 C-82.6496875 91.36191406 -83.299375 90.72382813 -83.96875 90.06640625 C-95.79868769 77.58789741 -99.40174802 61.21755789 -99.20703125 44.578125 C-98.24293079 27.91555861 -89.95889261 14.09996662 -78 3 C-74.81064641 0.37119946 -71.55179701 -1.89041356 -68 -4 C-67.21109375 -4.47050781 -66.4221875 -4.94101563 -65.609375 -5.42578125 C-44.31182722 -17.07073076 -19.39654551 -13.43536069 0 0 Z " fill="#FEFEFD" transform="translate(706,191)"/>
<path d="M0 0 C1.18843506 0.01123901 1.18843506 0.01123901 2.40087891 0.02270508 C16.47606133 0.28111099 28.87982005 4.66761312 40.125 13.25 C40.86363281 13.80042969 41.60226562 14.35085938 42.36328125 14.91796875 C53.04634773 23.57143711 58.97005648 35.06684316 62.125 48.25 C62.31707031 48.86359375 62.50914062 49.4771875 62.70703125 50.109375 C65.60896007 64.97158991 62.28917487 81.31268669 54.3828125 94.05859375 C52.68662224 96.50824192 50.9496092 98.89474383 49.125 101.25 C48.50753906 102.07628906 47.89007812 102.90257812 47.25390625 103.75390625 C40.34119787 111.85889828 31.06708671 116.85611498 21.125 120.25 C20.25488281 120.56839844 19.38476562 120.88679687 18.48828125 121.21484375 C4.19257167 125.85186763 -11.70882329 123.83541678 -25.125 117.5 C-30.53109243 114.61532617 -35.26275977 111.27230253 -39.875 107.25 C-40.47828125 106.75242187 -41.0815625 106.25484375 -41.703125 105.7421875 C-52.29188345 96.25046259 -59.21823702 79.96028858 -60.078125 65.9375 C-60.28780445 49.44271638 -56.57329487 34.50615218 -45.4375 21.8125 C-43.93561961 20.27294703 -42.41597414 18.75042219 -40.875 17.25 C-39.98941406 16.31607422 -39.98941406 16.31607422 -39.0859375 15.36328125 C-34.87126987 11.2321643 -30.09440281 8.58647434 -24.875 5.9375 C-24.21040771 5.59960449 -23.54581543 5.26170898 -22.86108398 4.91357422 C-15.30667464 1.24548363 -8.37360331 -0.10491664 0 0 Z " fill="#FEFEFE" transform="translate(666.875,721.75)"/>
<path d="M0 0 C0.92296875 0.40089844 1.8459375 0.80179687 2.796875 1.21484375 C17.32994153 8.29663464 28.26172362 21.01672278 34 36 C34.391875 37.010625 34.78375 38.02125 35.1875 39.0625 C38.2156798 50.01053467 38.5216779 63.15839473 35 74 C34.68160156 75.00546875 34.36320312 76.0109375 34.03515625 77.046875 C28.58296107 92.68751571 18.39920348 104.07383295 4 112 C-10.80848025 119.01549492 -28.99200098 121.31083207 -44.8125 115.9375 C-62.03005459 108.49884778 -74.61448067 96.80164028 -82.00390625 79.52734375 C-84.42214459 73.39165668 -85.57199683 67.53949037 -86 61 C-86.06574219 60.01902344 -86.13148438 59.03804687 -86.19921875 58.02734375 C-86.76391779 42.00157445 -80.73705628 27.40990306 -70.4375 15.25 C-52.51393631 -3.35145945 -24.16689843 -11.01320086 0 0 Z " fill="#FEFEFE" transform="translate(223,455)"/>
</svg>
