<?xml version="1.0" standalone="no"?>
<!DOCTYPE svg PUBLIC "-//W3C//DTD SVG 20010904//EN"
 "http://www.w3.org/TR/2001/REC-SVG-20010904/DTD/svg10.dtd">
<svg version="1.0" xmlns="http://www.w3.org/2000/svg"
 width="1024.000000pt" height="1024.000000pt" viewBox="0 0 1024.000000 1024.000000"
 preserveAspectRatio="xMidYMid meet">

<g transform="translate(0.000000,1024.000000) scale(0.100000,-0.100000)"
fill="#000000" stroke="none">
<path d="M4825 10234 c-355 -26 -522 -46 -750 -90 -619 -120 -1199 -355 -1720
-699 -865 -571 -1586 -1443 -1963 -2375 -230 -569 -342 -1132 -358 -1795 -23
-936 188 -1809 624 -2575 502 -883 1328 -1668 2229 -2119 719 -359 1503 -529
2343 -507 370 9 659 42 986 112 997 213 1899 734 2669 1544 849 892 1281 1981
1312 3300 28 1204 -303 2268 -986 3175 -266 353 -638 730 -991 1005 -743 579
-1579 906 -2570 1005 -145 15 -709 28 -825 19z m800 -938 c492 -61 887 -173
1290 -365 740 -354 1412 -983 1840 -1721 268 -461 429 -962 502 -1560 25 -207
25 -793 0 -1000 -44 -360 -103 -623 -203 -910 -192 -552 -483 -1008 -929
-1455 -739 -741 -1532 -1140 -2505 -1262 -116 -14 -216 -18 -505 -18 -397 1
-534 13 -849 76 -686 138 -1316 459 -1881 960 -558 494 -989 1118 -1210 1750
-156 450 -225 865 -225 1364 0 316 22 547 80 835 119 593 395 1185 788 1690
492 630 1100 1099 1762 1359 352 139 711 224 1095 261 61 5 128 12 150 14 102
10 677 -3 800 -18z"/>
<path d="M4924 8426 c-153 -29 -244 -74 -335 -165 -123 -124 -179 -288 -179
-533 0 -382 144 -601 450 -683 87 -23 326 -32 428 -15 177 28 318 104 400 215
91 123 122 228 129 445 4 130 2 171 -15 252 -52 251 -195 407 -431 470 -99 26
-343 34 -447 14z"/>
<path d="M3950 6723 c-62 -22 -160 -122 -186 -188 -18 -48 -19 -93 -22 -1122
l-3 -1073 293 -2 293 -3 3 -1232 2 -1233 790 0 790 0 0 1235 0 1235 290 0 291
0 -3 1073 c-3 877 -6 1079 -17 1109 -33 87 -135 184 -219 208 -24 6 -420 10
-1147 9 -986 0 -1115 -2 -1155 -16z"/>
</g>
</svg>
