<?xml version="1.0" standalone="no"?>
<!DOCTYPE svg PUBLIC "-//W3C//DTD SVG 20010904//EN"
 "http://www.w3.org/TR/2001/REC-SVG-20010904/DTD/svg10.dtd">
<svg version="1.0" xmlns="http://www.w3.org/2000/svg"
 width="1024.000000pt" height="1024.000000pt" viewBox="0 0 1024.000000 1024.000000"
 preserveAspectRatio="xMidYMid meet">

<circle cx="512" cy="512" r="500" fill="white"/>

<g transform="translate(0.000000,1024.000000) scale(0.100000,-0.100000)"
fill="#000000" stroke="none">
<path d="M4825 10233 c-610 -36 -1099 -139 -1610 -340 -1067 -419 -2060 -1335
-2621 -2418 -298 -576 -474 -1179 -546 -1875 -17 -163 -17 -723 0 -895 65
-659 216 -1200 497 -1770 677 -1380 1982 -2413 3466 -2745 1566 -350 3216 73
4460 1143 797 685 1311 1504 1564 2491 72 281 118 547 147 861 19 210 16 767
-5 981 -97 952 -415 1794 -952 2519 -279 377 -679 777 -1071 1070 -880 659
-1926 993 -3079 983 -110 -1 -222 -3 -250 -5z m800 -937 c815 -101 1475 -378
2090 -877 491 -398 856 -847 1124 -1379 229 -456 351 -867 418 -1400 22 -180
25 -755 5 -945 -64 -596 -226 -1117 -494 -1589 -186 -327 -456 -664 -746 -932
-730 -674 -1599 -1068 -2547 -1154 -154 -14 -555 -14 -710 0 -1153 105 -2176
664 -2922 1597 -417 523 -716 1177 -832 1826 -48 265 -55 357 -55 712 0 374
12 509 74 815 191 947 760 1857 1560 2496 596 476 1311 763 2080 834 63 5 133
12 155 14 103 10 677 -3 800 -18z"/>
<path d="M3466 6720 c-339 -53 -615 -194 -839 -429 -174 -183 -287 -392 -352
-648 -68 -273 -74 -629 -14 -925 117 -583 531 -997 1108 -1108 205 -40 494
-42 678 -4 404 82 767 342 987 709 l36 59 -312 158 c-172 86 -314 154 -316
150 -1 -4 -23 -45 -50 -92 -92 -164 -235 -275 -407 -316 -105 -24 -307 -15
-396 18 -148 55 -253 147 -326 284 -90 170 -123 329 -123 588 0 409 95 653
311 797 105 70 339 109 470 79 90 -20 212 -85 280 -148 58 -53 150 -178 164
-222 4 -11 10 -20 15 -20 11 0 661 337 673 349 4 4 -19 47 -52 97 -219 331
-509 522 -917 605 -89 18 -151 22 -334 25 -124 1 -251 -1 -284 -6z"/>
<path d="M6445 6724 c-362 -54 -625 -181 -855 -413 -110 -110 -176 -200 -244
-331 -124 -240 -185 -510 -186 -825 -1 -484 140 -881 410 -1156 278 -283 633
-420 1090 -420 208 0 344 21 516 82 241 85 469 241 638 434 65 75 202 272 195
279 -9 9 -631 317 -634 314 -1 -2 -22 -41 -46 -88 -53 -104 -163 -219 -256
-268 -204 -108 -532 -94 -693 30 -61 47 -124 116 -165 182 -92 148 -133 307
-142 551 -20 541 154 866 502 940 83 17 227 19 293 4 26 -6 88 -30 137 -54
111 -53 193 -130 267 -251 28 -46 53 -84 55 -84 4 0 653 340 662 346 5 4 -46
90 -97 163 -205 291 -503 474 -889 547 -85 16 -485 29 -558 18z"/>
</g>
</svg>
