<?xml version="1.0" standalone="no"?>
<!DOCTYPE svg PUBLIC "-//W3C//DTD SVG 20010904//EN"
 "http://www.w3.org/TR/2001/REC-SVG-20010904/DTD/svg10.dtd">
<svg version="1.0" xmlns="http://www.w3.org/2000/svg"
 width="2048.000000pt" height="2048.000000pt" viewBox="0 0 2048.000000 2048.000000"
 preserveAspectRatio="xMidYMid meet">

<g transform="translate(0.000000,2048.000000) scale(0.100000,-0.100000)"
fill="#000000" stroke="none">
<path d="M9715 20469 c-2532 -109 -4722 -1045 -6534 -2794 -964 -931 -1766
-2049 -2286 -3190 -463 -1018 -746 -2094 -850 -3235 -32 -364 -39 -530 -39
-1000 -1 -474 6 -654 40 -1015 167 -1831 794 -3472 1889 -4951 322 -434 648
-808 1084 -1245 580 -579 1094 -1004 1711 -1414 386 -256 682 -426 1105 -635
953 -469 1950 -767 3025 -904 485 -62 799 -80 1365 -80 560 0 896 19 1375 80
1988 251 3766 1054 5355 2417 410 352 893 833 1226 1222 1526 1781 2298 3971
2299 6515 0 1696 -346 3233 -1039 4620 -504 1006 -1143 1870 -2021 2733 -1229
1208 -2626 2033 -4205 2486 -1067 305 -2292 442 -3500 390z m1185 -1838 c846
-65 1548 -212 2265 -473 272 -99 513 -203 805 -349 837 -418 1542 -943 2290
-1705 579 -589 974 -1111 1375 -1814 67 -117 241 -468 310 -625 303 -686 518
-1473 614 -2240 56 -448 66 -636 66 -1185 0 -583 -16 -830 -86 -1330 -39 -280
-146 -840 -164 -858 -3 -4 -127 51 -900 396 -209 93 -607 271 -885 395 -278
123 -633 282 -790 352 -157 70 -429 192 -605 270 -176 79 -720 321 -1210 540
-489 218 -1268 565 -1730 770 -462 205 -1227 547 -1700 760 -473 213 -952 429
-1065 480 l-205 92 -40 78 -40 78 0 121 c1 204 49 329 175 457 83 84 159 131
310 192 327 132 755 165 1195 91 381 -64 805 -239 1192 -494 l102 -67 666 683
c366 376 665 685 665 688 0 6 -143 108 -270 193 -648 431 -1369 683 -2135 746
l-150 12 -3 788 -2 787 -593 -2 -592 -3 -3 -787 -2 -788 -43 0 c-78 0 -311
-31 -462 -61 -815 -162 -1491 -601 -1873 -1214 -66 -108 -167 -316 -212 -440
-18 -49 -36 -93 -40 -98 -3 -4 -146 55 -316 131 -170 77 -442 199 -604 272
-162 73 -358 161 -435 195 -77 34 -534 239 -1015 455 -1210 543 -1448 650
-1498 671 l-44 19 68 97 c471 680 1136 1401 1789 1939 789 650 1706 1148 2650
1437 681 209 1329 319 2130 361 133 7 910 -3 1045 -13z m-6000 -6791 c1416
-634 2958 -1320 3425 -1525 468 -205 1104 -489 1415 -630 311 -142 801 -358
1090 -481 l525 -224 61 -64 c154 -160 223 -367 211 -626 -19 -386 -168 -623
-492 -785 -320 -159 -675 -205 -1170 -149 -625 70 -1219 332 -1730 762 -70 59
-137 115 -150 126 l-23 18 -443 -448 c-244 -247 -560 -567 -703 -711 -223
-225 -258 -265 -246 -276 176 -158 558 -432 785 -564 519 -302 1033 -491 1580
-583 192 -33 459 -60 581 -60 45 0 96 -3 113 -6 l31 -6 0 -784 0 -784 595 0
595 0 0 785 c0 620 3 786 13 789 6 2 75 11 152 20 1106 130 2074 794 2471
1696 58 133 109 280 149 434 19 70 35 129 37 131 7 6 3848 -1711 3848 -1721 0
-15 -185 -322 -281 -466 -178 -265 -375 -520 -612 -792 -164 -187 -622 -647
-852 -854 -1077 -974 -2232 -1603 -3545 -1932 -1307 -328 -2836 -328 -4140 0
-564 142 -1060 324 -1585 583 -1010 498 -1956 1238 -2744 2147 -1123 1294
-1781 2772 -1961 4405 -60 547 -66 1276 -14 1825 38 405 109 827 200 1195 73
291 209 719 228 712 6 -3 1170 -523 2586 -1157z"/>
</g>
</svg>
