<?xml version="1.0" standalone="no"?>
<!DOCTYPE svg PUBLIC "-//W3C//DTD SVG 20010904//EN"
 "http://www.w3.org/TR/2001/REC-SVG-20010904/DTD/svg10.dtd">
<svg version="1.0" xmlns="http://www.w3.org/2000/svg"
 width="256.000000pt" height="256.000000pt" viewBox="0 0 256.000000 256.000000"
 preserveAspectRatio="xMidYMid meet">

<g transform="translate(0.000000,256.000000) scale(0.100000,-0.100000)"
fill="#000000" stroke="none">
<path d="M1686 2549 c-64 -15 -176 -74 -240 -126 -67 -54 -139 -153 -175 -240
-26 -65 -42 -225 -23 -237 6 -4 43 0 82 8 238 50 430 290 430 538 0 75 1 74
-74 57z"/>
<path d="M710 1945 c-237 -66 -420 -253 -492 -500 -20 -71 -23 -102 -23 -265
0 -203 11 -273 67 -443 103 -310 315 -615 488 -700 57 -28 74 -32 145 -32 72
1 91 5 180 44 186 79 318 79 503 -1 85 -37 106 -42 172 -43 108 0 180 37 286
147 111 116 255 338 318 490 l16 37 -63 33 c-213 112 -336 378 -286 620 26
126 128 277 228 338 22 14 41 30 41 37 0 23 -142 142 -219 182 -181 94 -335
93 -591 -5 -62 -23 -90 -28 -160 -28 -74 1 -104 7 -230 48 -169 56 -282 68
-380 41z"/>
</g>
</svg>
