<?xml version="1.0" ?><svg data-name="Layer 1" id="Layer_1" viewBox="0 0 130 130" xmlns="http://www.w3.org/2000/svg"><defs><style>.cls-1{fill:#bb3e3a;}.cls-2,.cls-5{fill:#020202;}.cls-2{opacity:0.16;}.cls-3{fill:#353949;}.cls-4{fill:#ad242c;}.cls-5{opacity:0.08;}</style></defs><title/><path class="cls-1" d="M94.64,41.89c-6.21-6.53,6.85-16.81,7-18.07s-2.87-3.15-2.87-3.15-3-2-4.05-1.29S87.18,30.3,77.51,28.46"/><path class="cls-2" d="M94.62,42.17c-6.21-6.53,6.85-16.81,7-18.07S98.77,21,98.77,21s-3-2-4.05-1.29S87.16,30.59,77.5,28.75"/><path class="cls-3" d="M97.38,44a1.5,1.5,0,0,1-1.09-.47c-5.93-6.23.36-15,2.73-18.37.3-.42.64-.89.76-1.1.24-1.16-1-2.62-1.78-3a4,4,0,0,0-3.48.2c-.1.09-.42.54-.68.91-1.94,2.7-6.49,9-16.31,6.87a1.5,1.5,0,1,1,.64-2.93c7.89,1.73,11.37-3.1,13.23-5.69a7.37,7.37,0,0,1,1.29-1.54,6.88,6.88,0,0,1,6.57-.54c1.88.88,4.17,3.72,3.39,6.58a7.18,7.18,0,0,1-1.19,2c-3.57,5-6.72,10.65-3,14.56A1.5,1.5,0,0,1,97.38,44Z"/><path class="cls-1" d="M36.84,88.05c7.11,5.53-1.48,17.81-1.45,19.07s3.3,2.68,3.3,2.68,3.24,1.5,4.2.67,5.84-11.93,15.67-11.54"/><path class="cls-2" d="M36.72,88c7.16,5.54-1.46,17.5-1.43,18.77s3.33,2.69,3.33,2.69,3.26,1.51,4.22.69,5.83-11.9,15.7-11.49"/><path class="cls-3" d="M40.39,112.44a6.6,6.6,0,0,1-1.81-.23c-2-.59-4.68-3.06-4.33-6a7.16,7.16,0,0,1,.88-2.12c2.78-5.48,5.05-11.53.79-14.84a1.5,1.5,0,1,1,1.84-2.37c6.8,5.28,1.89,14.94,0,18.57-.23.46-.5,1-.59,1.2-.06,1.18,1.37,2.44,2.21,2.69a4,4,0,0,0,3.41-.72c.08-.11.34-.6.54-1,1.52-3,5.07-9.88,15.1-9.22a1.5,1.5,0,1,1-.2,3c-8.06-.53-10.78,4.76-12.23,7.6A7.37,7.37,0,0,1,45,110.69,6.39,6.39,0,0,1,40.39,112.44Z"/><path class="cls-1" d="M91.49,87.63c-6.32,6.43,3.83,17.45,4,18.71s-2.92,3.1-2.92,3.1-3,1.92-4.08,1.23-7.38-11-17.07-9.35"/><path class="cls-2" d="M91.6,87.56C85.24,94,95.37,104.71,95.51,106s-2.94,3.11-2.94,3.11-3,1.93-4.09,1.24-7.36-11-17.09-9.3"/><path class="cls-3" d="M90.16,112.34a6,6,0,0,1-3.74-1.19,7.35,7.35,0,0,1-1.27-1.56c-1.82-2.62-5.22-7.51-13.14-5.91a1.5,1.5,0,1,1-.59-2.94c9.85-2,14.3,4.4,16.19,7.13a10.55,10.55,0,0,0,.69.94,4,4,0,0,0,3.45.24c.8-.36,2-1.79,1.83-3-.12-.21-.45-.68-.74-1.11-2.31-3.36-8.46-12.27-2.43-18.41a1.5,1.5,0,0,1,2.14,2.1c-3.79,3.85-.73,9.54,2.76,14.61a7.18,7.18,0,0,1,1.16,2c.73,2.87-1.6,5.68-3.49,6.53A7.25,7.25,0,0,1,90.16,112.34Z"/><circle class="cls-1" cx="66.33" cy="65.63" r="42.65"/><circle class="cls-4" cx="46.93" cy="78.66" r="4.99" transform="translate(-24.13 20.86) rotate(-20.05)"/><circle class="cls-4" cx="73.53" cy="45.63" r="6.35" transform="translate(-11.19 27.98) rotate(-20.05)"/><path class="cls-3" d="M73.54,53.48a7.85,7.85,0,0,1-2.7-15.22h0a7.85,7.85,0,1,1,2.7,15.22Zm0-12.7a4.85,4.85,0,0,0-1.66.3h0a4.82,4.82,0,1,0,1.66-.3Zm-2.18-1.11h0Z"/><circle class="cls-4" cx="71.26" cy="83.45" r="12.19" transform="matrix(0.94, -0.34, 0.34, 0.94, -24.29, 29.49)"/><path class="cls-3" d="M71.25,97.15A13.7,13.7,0,1,1,84.12,78.76h0A13.71,13.71,0,0,1,71.25,97.15Zm0-24.4a10.7,10.7,0,1,0,10,7h0a10.71,10.71,0,0,0-10-7Z"/><path class="cls-5" d="M92.89,31.91a38,38,0,1,1-68.6,31.62c0,.7-.11,1.39-.11,2.1A42.65,42.65,0,1,0,92.89,31.91Z"/><path class="cls-1" d="M29.74,87.56c-3.23.58-12.37,6.6-14.13,6.72s-4.13-4.23-4.13-4.23S9,85.76,10,84.32s11.3-1,15.72-7.3"/><path class="cls-5" d="M29.74,87.56c-3.23.58-12.37,6.6-14.13,6.72s-4.13-4.23-4.13-4.23S9,85.76,10,84.32s11.3-1,15.72-7.3"/><path class="cls-1" d="M89.41,92.59c9.2-5.17,18.84,6.48,20.95,7.08s5-3.45,5-3.45,3-4,1.78-5.78-15.18-6.39-14-15.06"/><path class="cls-3" d="M16.66,95.76a9.4,9.4,0,0,1-6.83-3.48c-1.61-2.14-2.51-6.77.1-9.54.49-.52,1.25-.79,3.58-1.55C22.31,78.3,31,74.38,29,67.16a1.5,1.5,0,1,1,2.89-.81C35,77.31,20.59,82,14.44,84c-1,.32-2.05.67-2.42.85-1.32,1.55-.64,4.47.2,5.58s3.09,2.56,5,2.25a22.09,22.09,0,0,0,2-1.4C24,87.78,34,80.43,44.19,89a1.5,1.5,0,1,1-1.94,2.29C33.9,84.25,25.5,90.42,21,93.73c-1.53,1.13-2.45,1.8-3.31,1.95A6.22,6.22,0,0,1,16.66,95.76Z"/><path class="cls-5" d="M89.6,92.33c9.2-5.17,18.84,6.48,20.95,7.08s5-3.45,5-3.45,3-4,1.78-5.78-15.18-6.39-14-15.06"/><path class="cls-3" d="M106.2,82.32a1.5,1.5,0,0,1-1.4-2,41.15,41.15,0,1,0-78-3.1,1.5,1.5,0,0,1-2.88.84,44.15,44.15,0,1,1,83.66,3.32A1.5,1.5,0,0,1,106.2,82.32Z"/><path class="cls-3" d="M66.33,109.78A44.42,44.42,0,0,1,28.45,88.34,1.5,1.5,0,0,1,31,86.79a41.16,41.16,0,0,0,67.35,4.67,1.5,1.5,0,1,1,2.33,1.88A44,44,0,0,1,66.33,109.78Z"/><circle class="cls-4" cx="85.69" cy="62.84" r="5.98"/><circle class="cls-4" cx="67.79" cy="60.51" r="2.45"/><circle class="cls-4" cx="55.52" cy="41.6" r="3.44" transform="translate(-10.9 21.56) rotate(-20.05)"/><path class="cls-4" d="M45.28,52.74a7.88,7.88,0,0,1,10.16,5,8.36,8.36,0,0,1-5,10.5,7.88,7.88,0,0,1-10.16-5A8.36,8.36,0,0,1,45.28,52.74Z"/><path class="cls-3" d="M47.8,70.25a9.23,9.23,0,0,1-4-.93,9.49,9.49,0,0,1-4.88-5.6,9.88,9.88,0,0,1,5.89-12.39h0A9.22,9.22,0,0,1,52,51.7a9.49,9.49,0,0,1,4.88,5.6A9.88,9.88,0,0,1,51,69.69,9.34,9.34,0,0,1,47.8,70.25Zm-2-16.1a6.87,6.87,0,0,0-4.06,8.62,6.52,6.52,0,0,0,3.34,3.85,6.24,6.24,0,0,0,4.88.25A6.86,6.86,0,0,0,54,58.25a6.51,6.51,0,0,0-3.34-3.85,6.23,6.23,0,0,0-4.88-.25Z"/><path class="cls-1" d="M77.84,31.94c-9.6-4.38-5.88-19-6.63-21.09s-5.72-2-5.72-2-5-.09-5.72,2,3.79,16-3.93,20.15"/><path class="cls-3" d="M77.51,33.44a1.49,1.49,0,0,1-.62-.14c-8.34-3.8-7.76-14.35-7.48-19.42a18.07,18.07,0,0,0,0-2.56c-.16-.42-2.2-1-4.27-.94s-4.16.53-4.33,1a22.29,22.29,0,0,0,.25,2.92c.61,5.07,1.74,14.5-4.89,18a1.5,1.5,0,1,1-1.41-2.65c4.82-2.57,3.88-10.37,3.32-15-.28-2.32-.4-3.47-.09-4.31,1-2.84,5.73-3,7.15-3s6.06.12,7.1,3A10.47,10.47,0,0,1,72.41,14c-.28,5.08-.75,13.58,5.73,16.53a1.5,1.5,0,0,1-.62,2.87Z"/><path class="cls-3" d="M111,101a3.13,3.13,0,0,1-.87-.12,10.48,10.48,0,0,1-3.07-2.1c-3.94-3.22-10.52-8.61-16.73-5.12A1.5,1.5,0,1,1,88.87,91c8-4.49,16.17,2.2,20.1,5.41A18,18,0,0,0,111,98c.44.11,2.09-1.2,3.28-2.89s2-3.67,1.76-4.08a22.44,22.44,0,0,0-2.51-1.51c-4.45-2.5-12.74-7.15-11.68-14.59a1.5,1.5,0,1,1,3,.42c-.77,5.41,6.09,9.25,10.18,11.55,2,1.14,3,1.73,3.53,2.46,1.68,2.51-1,6.39-1.83,7.52S113.6,101,111,101Z"/><path class="cls-1" d="M53.14,97.78c9.5,4.6,5.44,19.16,6.15,21.24s5.67,2.1,5.67,2.1,5,.2,5.76-1.84-3.42-16.11,4.39-20.05"/><path class="cls-5" d="M53.47,97.78c9.5,4.6,5.44,19.16,6.15,21.24s5.67,2.1,5.67,2.1,5,.2,5.76-1.84-3.42-16.11,4.39-20.05"/><path class="cls-3" d="M65.84,122.64h-.61c-1.36,0-6.05-.25-7-3.12a8.74,8.74,0,0,1,0-3.29c.44-4.79,1.25-13.71-7.42-19.3a1.5,1.5,0,0,1,1.63-2.52c10.18,6.58,9.23,17.06,8.77,22.1a14.68,14.68,0,0,0-.11,2.11c.14.41,2.18,1,4.24,1s4.17-.43,4.35-.89a22.46,22.46,0,0,0-.29-2.74c-.68-5-2-14.42,5.4-18.11a1.5,1.5,0,1,1,1.34,2.68c-5.44,2.73-4.4,10.42-3.77,15,.31,2.27.44,3.39.11,4.24C71.46,122.32,67.68,122.64,65.84,122.64Z"/><path class="cls-1" d="M47.87,35.26c-9,8.68-23.42-9.41-25.17-9.63s-4.35,4-4.35,4-2.71,4.15-1.77,5.65,20,6.63,17.48,20.07"/><path class="cls-3" d="M33.27,59.16a1.5,1.5,0,0,1-1.47-1.81c2.29-10.7-7.12-15.18-12.18-17.58-1.72-.81-2.75-1.31-3.28-2-2-2.6-1.64-6.55-.73-8.53,1.12-2.44,4.77-5.41,8.45-4.43.69.18,1.28.73,3.06,2.42,6.71,6.39,14.31,12.22,19.71,7a1.5,1.5,0,1,1,2.08,2.16c-8.2,7.88-19.17-2.56-23.86-7-.74-.7-1.56-1.49-1.9-1.73-2-.42-4.24,1.56-4.82,2.82s-.79,3.94.37,5.44a22.12,22.12,0,0,0,2.2,1.12C26.3,39.62,37.52,44.95,34.73,58A1.5,1.5,0,0,1,33.27,59.16Z"/><path class="cls-1" d="M99.59,65C96.23,52.93,119,48.83,120,47.39s-1.47-5.73-1.47-5.73-2.37-4.36-4.13-4.23-15.3,14.45-26,5.88"/><path class="cls-3" d="M99.52,66.46a1.5,1.5,0,0,1-1.44-1.1c-3.06-11,11.33-15.67,17.48-17.69,1-.32,2.05-.67,2.42-.85,1.32-1.55.64-4.47-.2-5.58s-3.09-2.56-5-2.25a22.09,22.09,0,0,0-2,1.4C106,43.93,96,51.29,85.81,42.67a1.5,1.5,0,1,1,1.94-2.29c8.34,7.09,16.74.91,21.25-2.4,1.53-1.12,2.45-1.8,3.31-1.95,3.24-.54,6.55,1.66,7.86,3.4,1.61,2.14,2.51,6.77-.1,9.54-.49.52-1.25.79-3.58,1.55-8.81,2.89-17.54,6.81-15.52,14a1.5,1.5,0,0,1-1.45,1.9Z"/></svg>